<svg xmlns="http://www.w3.org/2000/svg" id="Layer_2" data-name="Layer 2" viewBox="0 0 1348.05 237.23"><defs><style>      .cls-1 {        fill: #fff;      }      .cls-2 {        fill: #38508f;      }      .cls-3 {        fill: #4160ab;      }      .cls-4 {        fill: #b8e2f8;      }      .cls-5 {        fill: #4261ab;      }    </style></defs><g id="Layer_2-2" data-name="Layer 2"><g id="H"><g><path class="cls-1" d="m524.16,121.63h-43.83c.35,4.58,2.05,8.26,5.1,11.04,3.05,2.78,6.8,4.16,11.24,4.16,6.38,0,10.89-2.67,13.53-8.02h12.8c-1.73,5.28-4.87,9.6-9.42,12.96-4.55,3.37-10.19,5.05-16.92,5.05-5.48,0-10.4-1.23-14.73-3.7-4.34-2.46-7.74-5.93-10.2-10.41-2.47-4.47-3.7-9.66-3.7-15.56s1.19-11.09,3.59-15.57c2.39-4.48,5.76-7.93,10.1-10.36,4.34-2.43,9.32-3.64,14.94-3.64s10.23,1.18,14.47,3.54,7.53,5.67,9.89,9.94c2.36,4.27,3.54,9.18,3.54,14.73,0,2.16-.14,4.1-.42,5.83Zm-11.97-9.58c-.07-4.37-1.63-7.87-4.69-10.51-3.06-2.64-6.84-3.96-11.35-3.96-4.1,0-7.6,1.3-10.51,3.9-2.92,2.6-4.65,6.13-5.21,10.57h31.75Z"></path><path class="cls-1" d="m560.81,116.84l18.53,29.05h-13.43l-12.39-19.47-11.66,19.47h-12.39l18.53-28.21-18.53-29.15h13.43l12.39,19.46,11.66-19.46h12.39l-18.53,28.31Z"></path><path class="cls-1" d="m640.35,121.63h-43.83c.35,4.58,2.04,8.26,5.1,11.04,3.06,2.78,6.8,4.16,11.24,4.16,6.38,0,10.89-2.67,13.53-8.02h12.8c-1.73,5.28-4.87,9.6-9.42,12.96-4.54,3.37-10.19,5.05-16.92,5.05-5.48,0-10.4-1.23-14.73-3.7-4.34-2.46-7.74-5.93-10.2-10.41-2.47-4.47-3.7-9.66-3.7-15.56s1.2-11.09,3.59-15.57c2.39-4.48,5.76-7.93,10.1-10.36,4.34-2.43,9.32-3.64,14.94-3.64s10.24,1.18,14.47,3.54c4.23,2.36,7.53,5.67,9.89,9.94,2.36,4.27,3.54,9.18,3.54,14.73,0,2.16-.14,4.1-.42,5.83Zm-11.97-9.58c-.07-4.37-1.63-7.87-4.69-10.51s-6.84-3.96-11.35-3.96c-4.1,0-7.6,1.3-10.52,3.9-2.91,2.6-4.65,6.13-5.21,10.57h31.76Z"></path><path class="cls-1" d="m652.06,101.59c2.39-4.48,5.7-7.93,9.94-10.36,4.23-2.43,9.09-3.64,14.58-3.64,6.94,0,12.68,1.65,17.23,4.95,4.54,3.3,7.61,8,9.22,14.11h-12.81c-1.04-2.85-2.7-5.06-5-6.66-2.29-1.6-5.17-2.39-8.64-2.39-4.86,0-8.73,1.72-11.61,5.15-2.88,3.44-4.32,8.24-4.32,14.42s1.44,11,4.32,14.47c2.88,3.47,6.75,5.21,11.61,5.21,6.87,0,11.41-3.02,13.63-9.06h12.81c-1.67,5.83-4.79,10.47-9.37,13.9-4.58,3.43-10.27,5.15-17.07,5.15-5.48,0-10.34-1.23-14.58-3.7-4.23-2.46-7.54-5.93-9.94-10.41-2.39-4.47-3.59-9.66-3.59-15.56s1.2-11.09,3.59-15.57Z"></path><path class="cls-1" d="m766.83,88.53v57.36h-11.86v-6.77c-1.88,2.36-4.32,4.21-7.34,5.57-3.02,1.36-6.23,2.03-9.63,2.03-4.51,0-8.56-.94-12.13-2.81-3.57-1.88-6.38-4.65-8.43-8.33-2.05-3.68-3.08-8.12-3.08-13.32v-33.73h11.77v31.96c0,5.13,1.28,9.07,3.85,11.81,2.57,2.75,6.07,4.11,10.52,4.11s7.97-1.37,10.57-4.11c2.6-2.74,3.9-6.68,3.9-11.81v-31.96h11.86Z"></path><path class="cls-1" d="m796.3,98.21v31.76c0,2.15.5,3.7,1.51,4.63,1.01.94,2.72,1.4,5.15,1.4h7.28v9.89h-9.37c-5.34,0-9.44-1.25-12.28-3.75-2.85-2.5-4.27-6.56-4.27-12.18v-31.76h-6.77v-9.68h6.77v-14.26h11.97v14.26h13.95v9.68h-13.95Z"></path><path class="cls-1" d="m821.8,78.74c-1.46-1.45-2.19-3.26-2.19-5.41s.73-3.95,2.19-5.41c1.46-1.45,3.26-2.19,5.41-2.19s3.85.73,5.31,2.19c1.45,1.46,2.19,3.26,2.19,5.41s-.73,3.96-2.19,5.41c-1.46,1.46-3.23,2.19-5.31,2.19s-3.95-.73-5.41-2.19Zm11.24,9.79v57.36h-11.87v-57.36h11.87Z"></path><path class="cls-1" d="m870.83,135.27l16.24-46.74h12.6l-21.86,57.36h-14.16l-21.76-57.36h12.7l16.24,46.74Z"></path><path class="cls-1" d="m960.78,121.63h-43.83c.35,4.58,2.04,8.26,5.1,11.04,3.06,2.78,6.8,4.16,11.24,4.16,6.38,0,10.89-2.67,13.53-8.02h12.8c-1.73,5.28-4.87,9.6-9.42,12.96-4.54,3.37-10.19,5.05-16.92,5.05-5.48,0-10.4-1.23-14.73-3.7-4.34-2.46-7.74-5.93-10.2-10.41-2.47-4.47-3.7-9.66-3.7-15.56s1.2-11.09,3.59-15.57c2.39-4.48,5.76-7.93,10.1-10.36,4.34-2.43,9.32-3.64,14.94-3.64s10.24,1.18,14.47,3.54c4.23,2.36,7.53,5.67,9.89,9.94,2.36,4.27,3.54,9.18,3.54,14.73,0,2.16-.14,4.1-.42,5.83Zm-11.97-9.58c-.07-4.37-1.63-7.87-4.69-10.51-3.06-2.64-6.84-3.96-11.35-3.96-4.1,0-7.6,1.3-10.52,3.9-2.91,2.6-4.65,6.13-5.21,10.57h31.76Z"></path><path class="cls-1" d="m1010.13,143.13c-4.37-2.46-7.81-5.93-10.31-10.41-2.5-4.47-3.75-9.66-3.75-15.56s1.28-11,3.85-15.51c2.57-4.51,6.07-7.98,10.51-10.41,4.44-2.43,9.4-3.64,14.89-3.64s10.45,1.21,14.89,3.64c4.44,2.43,7.95,5.9,10.51,10.41,2.57,4.51,3.85,9.68,3.85,15.51s-1.32,11-3.95,15.51c-2.64,4.51-6.23,8-10.78,10.46-4.55,2.47-9.56,3.7-15.05,3.7s-10.3-1.23-14.68-3.7Zm23.27-8.79c2.67-1.46,4.84-3.64,6.51-6.56,1.67-2.91,2.5-6.45,2.5-10.61s-.8-7.69-2.39-10.57c-1.6-2.88-3.72-5.05-6.35-6.51-2.64-1.46-5.48-2.19-8.53-2.19s-5.88.73-8.48,2.19c-2.6,1.46-4.67,3.62-6.2,6.51-1.53,2.88-2.29,6.4-2.29,10.57,0,6.18,1.58,10.94,4.74,14.31,3.16,3.37,7.13,5.05,11.92,5.05,3.06,0,5.92-.73,8.59-2.19Z"></path><path class="cls-1" d="m1086.43,90.3c3.47-1.8,7.39-2.71,11.77-2.71,5,0,9.56,1.24,13.69,3.7,4.13,2.47,7.37,5.92,9.73,10.36,2.36,4.44,3.54,9.54,3.54,15.31s-1.18,10.91-3.54,15.46c-2.36,4.54-5.61,8.09-9.73,10.62-4.13,2.53-8.69,3.8-13.69,3.8-4.38,0-8.26-.88-11.66-2.65-3.4-1.77-6.18-3.97-8.33-6.61v35.6h-11.86v-84.64h11.86v8.43c2.01-2.63,4.76-4.85,8.22-6.66Zm24.21,16.39c-1.63-2.88-3.78-5.06-6.46-6.56-2.67-1.49-5.54-2.24-8.59-2.24s-5.82.76-8.48,2.29c-2.67,1.53-4.83,3.75-6.46,6.66-1.63,2.91-2.45,6.35-2.45,10.31s.82,7.41,2.45,10.35c1.63,2.95,3.78,5.19,6.46,6.72,2.67,1.53,5.5,2.29,8.48,2.29s5.91-.78,8.59-2.34c2.67-1.56,4.82-3.83,6.46-6.82s2.45-6.46,2.45-10.41-.81-7.38-2.45-10.26Z"></path><path class="cls-1" d="m1150.77,98.21v31.76c0,2.15.5,3.7,1.51,4.63,1.01.94,2.72,1.4,5.15,1.4h7.28v9.89h-9.37c-5.34,0-9.44-1.25-12.28-3.75-2.85-2.5-4.27-6.56-4.27-12.18v-31.76h-6.77v-9.68h6.77v-14.26h11.97v14.26h13.95v9.68h-13.95Z"></path><path class="cls-1" d="m1176.28,78.74c-1.46-1.45-2.19-3.26-2.19-5.41s.73-3.95,2.19-5.41c1.45-1.45,3.26-2.19,5.41-2.19s3.85.73,5.31,2.19c1.46,1.46,2.19,3.26,2.19,5.41s-.73,3.96-2.19,5.41c-1.46,1.46-3.23,2.19-5.31,2.19s-3.96-.73-5.41-2.19Zm11.24,9.79v57.36h-11.86v-57.36h11.86Z"></path><path class="cls-1" d="m1202.78,101.59c2.39-4.48,5.7-7.93,9.94-10.36,4.23-2.43,9.09-3.64,14.58-3.64,6.94,0,12.68,1.65,17.23,4.95,4.54,3.3,7.61,8,9.22,14.11h-12.81c-1.04-2.85-2.7-5.06-5-6.66-2.29-1.6-5.17-2.39-8.64-2.39-4.86,0-8.73,1.72-11.61,5.15-2.88,3.44-4.32,8.24-4.32,14.42s1.44,11,4.32,14.47c2.88,3.47,6.75,5.21,11.61,5.21,6.87,0,11.41-3.02,13.63-9.06h12.81c-1.67,5.83-4.79,10.47-9.37,13.9-4.58,3.43-10.27,5.15-17.07,5.15-5.48,0-10.34-1.23-14.58-3.7-4.23-2.46-7.54-5.93-9.94-10.41-2.39-4.47-3.59-9.66-3.59-15.56s1.2-11.09,3.59-15.57Z"></path><path class="cls-1" d="m1265.24,101.64c2.39-4.44,5.65-7.89,9.79-10.36,4.13-2.46,8.69-3.7,13.69-3.7,4.51,0,8.45.88,11.81,2.65,3.37,1.77,6.05,3.98,8.07,6.61v-8.33h11.98v57.36h-11.98v-8.53c-2.01,2.7-4.75,4.96-8.22,6.77-3.47,1.8-7.43,2.7-11.87,2.7-4.93,0-9.44-1.27-13.54-3.8-4.09-2.53-7.34-6.07-9.73-10.62-2.39-4.54-3.59-9.7-3.59-15.46s1.2-10.86,3.59-15.31Zm40.91,5.21c-1.63-2.91-3.77-5.13-6.4-6.66-2.64-1.53-5.48-2.29-8.54-2.29s-5.9.75-8.53,2.24c-2.64,1.49-4.77,3.68-6.41,6.56-1.63,2.88-2.45,6.3-2.45,10.26s.81,7.43,2.45,10.41c1.63,2.98,3.78,5.26,6.46,6.82,2.67,1.56,5.5,2.34,8.48,2.34s5.9-.76,8.54-2.29c2.63-1.53,4.77-3.76,6.4-6.72,1.63-2.95,2.45-6.4,2.45-10.35s-.81-7.4-2.45-10.31Z"></path><path class="cls-1" d="m1348.05,68.85v77.04h-11.87v-77.04h11.87Z"></path></g><path class="cls-2" d="m199.46,210.17c-16.4-8.8-29.43-21.09-39.07-36.88-9.65-15.79-14.46-33.53-14.46-53.24s4.82-37.41,14.46-53.1c9.64-15.69,22.67-27.93,39.07-36.74,16.4-8.8,34.45-13.2,54.13-13.2s37.73,4.4,54.13,13.2c16.4,8.8,29.32,21.05,38.77,36.74,9.44,15.69,14.17,33.39,14.17,53.1s-4.77,37.46-14.32,53.24c-9.54,15.79-22.47,28.08-38.77,36.88-16.3,8.8-34.3,13.2-53.98,13.2s-37.73-4.4-54.13-13.2Zm91.23-54.22c9.29-9.05,13.93-21.02,13.93-35.9s-4.65-27.05-13.93-36.02c-9.29-8.97-21.66-13.46-37.11-13.46s-28.1,4.45-37.38,13.34c-9.29,8.9-13.93,20.94-13.93,36.14s4.64,27.05,13.93,36.02c9.29,8.97,21.75,13.46,37.38,13.46s27.82-4.53,37.11-13.58Z"></path><path class="cls-4" d="m196.5,207.98c-16.4-8.8-29.43-21.09-39.07-36.88-9.65-15.79-14.46-33.53-14.46-53.24s4.82-37.41,14.46-53.1c9.64-15.69,22.67-27.93,39.07-36.74,16.4-8.8,34.45-13.2,54.13-13.2s37.73,4.4,54.13,13.2c16.4,8.8,29.32,21.05,38.77,36.74,9.44,15.69,14.17,33.39,14.17,53.1s-4.77,37.46-14.32,53.24c-9.54,15.79-22.47,28.08-38.77,36.88-16.3,8.8-34.3,13.2-53.98,13.2s-37.73-4.4-54.13-13.2Zm91.23-54.22c9.29-9.05,13.93-21.02,13.93-35.9s-4.65-27.05-13.93-36.02c-9.29-8.97-21.66-13.46-37.11-13.46s-28.1,4.45-37.38,13.34c-9.29,8.9-13.93,20.94-13.93,36.14s4.64,27.05,13.93,36.02c9.29,8.97,21.75,13.46,37.38,13.46s27.82-4.53,37.11-13.58Z"></path><path class="cls-3" d="m208.65,2.88c113.65,0,205.77,51.82,205.77,115.74s-92.13,115.74-205.77,115.74S2.88,182.53,2.88,118.61,95.01,2.88,208.65,2.88m0-2.88c-55.45,0-107.63,12.17-146.92,34.27C21.93,56.66,0,86.61,0,118.61s21.93,61.95,61.74,84.35c39.29,22.1,91.47,34.27,146.92,34.27s107.63-12.17,146.92-34.27c39.81-22.39,61.74-52.35,61.74-84.35s-21.93-61.95-61.74-84.35C316.28,12.17,264.1,0,208.65,0h0Z"></path><polygon class="cls-2" points="92.33 73.91 92.33 103.2 157.02 104.46 166.39 99.01 166.39 104.65 166.41 104.65 166.41 136.99 166.39 136.99 166.39 141.08 159.12 136.86 92.33 135.55 92.33 166.12 185.77 166.12 199.28 158.27 199.28 214.71 185.79 206.86 34.28 206.86 45.51 187.58 45.51 54.11 34.28 34.84 184.98 34.84 196.33 28.12 199.28 26.59 199.28 81.76 185.77 73.91 92.33 73.91"></polygon><polygon class="cls-5" points="89.4 70.53 89.4 99.82 155.41 101.1 163.47 96.42 163.47 138.49 154.78 133.44 89.4 132.15 89.4 162.74 182.83 162.74 196.34 154.89 196.34 211.3 182.87 203.47 31.35 203.47 42.59 184.14 42.59 50.77 31.35 31.44 182.83 31.44 196.34 23.59 196.34 78.36 182.87 70.53 89.4 70.53"></polygon><path class="cls-2" d="m199.46,210.17c-16.4-8.8-29.43-21.09-39.07-36.88-9.65-15.79-14.46-33.53-14.46-53.24s4.82-37.41,14.46-53.1c9.64-15.69,22.67-27.93,39.07-36.74,16.4-8.8,34.45-13.2,54.13-13.2s37.73,4.4,54.13,13.2c16.4,8.8,29.32,21.05,38.77,36.74,9.44,15.69,14.17,33.39,14.17,53.1s-4.77,37.46-14.32,53.24c-9.54,15.79-22.47,28.08-38.77,36.88-16.3,8.8-34.3,13.2-53.98,13.2s-37.73-4.4-54.13-13.2Zm91.23-54.22c9.29-9.05,13.93-21.02,13.93-35.9s-4.65-27.05-13.93-36.02c-9.29-8.97-21.66-13.46-37.11-13.46s-28.1,4.45-37.38,13.34c-9.29,8.9-13.93,20.94-13.93,36.14s4.64,27.05,13.93,36.02c9.29,8.97,21.75,13.46,37.38,13.46s27.82-4.53,37.11-13.58Z"></path><path class="cls-4" d="m196.5,207.98c-16.4-8.8-29.43-21.09-39.07-36.88-9.65-15.79-14.46-33.53-14.46-53.24s4.82-37.41,14.46-53.1c9.64-15.69,22.67-27.93,39.07-36.74,16.4-8.8,34.45-13.2,54.13-13.2s37.73,4.4,54.13,13.2c16.4,8.8,29.32,21.05,38.77,36.74,9.44,15.69,14.17,33.39,14.17,53.1s-4.77,37.46-14.32,53.24c-9.54,15.79-22.47,28.08-38.77,36.88-16.3,8.8-34.3,13.2-53.98,13.2s-37.73-4.4-54.13-13.2Zm91.23-54.22c9.29-9.05,13.93-21.02,13.93-35.9s-4.65-27.05-13.93-36.02c-9.29-8.97-21.66-13.46-37.11-13.46s-28.1,4.45-37.38,13.34c-9.29,8.9-13.93,20.94-13.93,36.14s4.64,27.05,13.93,36.02c9.29,8.97,21.75,13.46,37.38,13.46s27.82-4.53,37.11-13.58Z"></path><path class="cls-3" d="m208.65,2.88c113.65,0,205.77,51.82,205.77,115.74s-92.13,115.74-205.77,115.74S2.88,182.53,2.88,118.61,95.01,2.88,208.65,2.88m0-2.88c-55.45,0-107.63,12.17-146.92,34.27C21.93,56.66,0,86.61,0,118.61s21.93,61.95,61.74,84.35c39.29,22.1,91.47,34.27,146.92,34.27s107.63-12.17,146.92-34.27c39.81-22.39,61.74-52.35,61.74-84.35s-21.93-61.95-61.74-84.35C316.28,12.17,264.1,0,208.65,0h0Z"></path><polygon class="cls-2" points="92.33 73.91 92.33 103.2 157.02 104.46 166.39 99.01 166.39 104.65 166.41 104.65 166.41 136.99 166.39 136.99 166.39 141.08 159.12 136.86 92.33 135.55 92.33 166.12 185.77 166.12 199.28 158.27 199.28 214.71 185.79 206.86 34.28 206.86 45.51 187.58 45.51 54.11 34.28 34.84 184.98 34.84 196.33 28.12 199.28 26.59 199.28 81.76 185.77 73.91 92.33 73.91"></polygon><polygon class="cls-5" points="89.4 70.53 89.4 99.82 155.41 101.1 163.47 96.42 163.47 138.49 154.78 133.44 89.4 132.15 89.4 162.74 182.83 162.74 196.34 154.89 196.34 211.3 182.87 203.47 31.35 203.47 42.59 184.14 42.59 50.77 31.35 31.44 182.83 31.44 196.34 23.59 196.34 78.36 182.87 70.53 89.4 70.53"></polygon></g></g></svg>