<svg xmlns="http://www.w3.org/2000/svg" viewBox="0 0 1348.05 237.23"><defs><style>.cls-1{fill:#231f20;}.cls-2{fill:#38508f;}.cls-3{fill:#b8e2f8;}.cls-4{fill:#4160ab;}.cls-5{fill:#4261ab;}</style></defs><g id="Layer_2" data-name="Layer 2"><g id="Layer_2-2" data-name="Layer 2"><g id="H"><path class="cls-1" d="M524.16,121.63H480.33a15.93,15.93,0,0,0,5.11,11,16.12,16.12,0,0,0,11.24,4.16q9.58,0,13.53-8H523a25.86,25.86,0,0,1-9.42,13q-6.83,5-16.92,5A29.34,29.34,0,0,1,482,143.13a26.2,26.2,0,0,1-10.2-10.41,31.71,31.71,0,0,1-3.7-15.56,32.59,32.59,0,0,1,3.59-15.57,25.27,25.27,0,0,1,10.1-10.36,30.06,30.06,0,0,1,14.94-3.64,29.24,29.24,0,0,1,14.47,3.54,25,25,0,0,1,9.89,9.94,30,30,0,0,1,3.54,14.73A36.67,36.67,0,0,1,524.16,121.63Zm-12-9.58a13.49,13.49,0,0,0-4.69-10.51,16.71,16.71,0,0,0-11.34-4,15.18,15.18,0,0,0-10.51,3.91,16.25,16.25,0,0,0-5.21,10.56Z"></path><path class="cls-1" d="M560.81,116.84l18.53,29H565.91l-12.39-19.47-11.66,19.47H529.47L548,117.68,529.47,88.53H542.9L555.29,108,567,88.53h12.39Z"></path><path class="cls-1" d="M640.35,121.63H596.52a15.88,15.88,0,0,0,5.1,11,16.12,16.12,0,0,0,11.24,4.16q9.58,0,13.53-8H639.2a25.86,25.86,0,0,1-9.42,13q-6.81,5-16.92,5a29.34,29.34,0,0,1-14.73-3.69,26.2,26.2,0,0,1-10.2-10.41,31.71,31.71,0,0,1-3.7-15.56,32.47,32.47,0,0,1,3.6-15.57,25.25,25.25,0,0,1,10.09-10.36,30.06,30.06,0,0,1,14.94-3.64,29.18,29.18,0,0,1,14.47,3.54,25,25,0,0,1,9.89,9.94,30,30,0,0,1,3.54,14.73A38,38,0,0,1,640.35,121.63Zm-12-9.58a13.52,13.52,0,0,0-4.69-10.51,16.76,16.76,0,0,0-11.35-4,15.2,15.2,0,0,0-10.51,3.91,16.25,16.25,0,0,0-5.21,10.56Z"></path><path class="cls-1" d="M652.06,101.59A25.46,25.46,0,0,1,662,91.23a28.74,28.74,0,0,1,14.58-3.64q10.41,0,17.22,4.94A24.36,24.36,0,0,1,703,106.64H690.21a13.47,13.47,0,0,0-5-6.66,14.7,14.7,0,0,0-8.63-2.4A14.35,14.35,0,0,0,665,102.74q-4.34,5.15-4.32,14.42T665,131.62a14.27,14.27,0,0,0,11.61,5.21q10.29,0,13.63-9.06H703a25.65,25.65,0,0,1-9.37,13.9q-6.87,5.16-17.07,5.15A28.47,28.47,0,0,1,662,143.13a25.78,25.78,0,0,1-9.94-10.41,32.57,32.57,0,0,1-3.59-15.56A32.59,32.59,0,0,1,652.06,101.59Z"></path><path class="cls-1" d="M766.83,88.53v57.36H755v-6.77a19.22,19.22,0,0,1-7.34,5.57,23.22,23.22,0,0,1-9.64,2,25.64,25.64,0,0,1-12.12-2.81,20.2,20.2,0,0,1-8.43-8.33,27,27,0,0,1-3.08-13.32V88.53h11.77v32q0,7.7,3.85,11.81c2.56,2.75,6.07,4.11,10.52,4.11s8-1.36,10.56-4.11,3.91-6.68,3.91-11.81v-32Z"></path><path class="cls-1" d="M796.3,98.21V130c0,2.15.5,3.7,1.5,4.63S800.53,136,803,136h7.28v9.89h-9.36q-8,0-12.29-3.75T784.32,130V98.21h-6.76V88.53h6.76V74.26h12V88.53h13.94v9.68Z"></path><path class="cls-1" d="M821.8,78.74a7.61,7.61,0,0,1,5.41-13,7.24,7.24,0,0,1,5.31,2.19,7.79,7.79,0,0,1,0,10.83,7.19,7.19,0,0,1-5.31,2.18A7.34,7.34,0,0,1,821.8,78.74ZM833,88.53v57.36H821.17V88.53Z"></path><path class="cls-1" d="M870.83,135.27l16.24-46.74h12.6l-21.86,57.36H863.65L841.89,88.53H854.6Z"></path><path class="cls-1" d="M960.78,121.63H917a16,16,0,0,0,5.1,11,16.14,16.14,0,0,0,11.25,4.16q9.57,0,13.53-8h12.8a25.8,25.8,0,0,1-9.42,13q-6.81,5-16.91,5a29.35,29.35,0,0,1-14.74-3.69,26.33,26.33,0,0,1-10.2-10.41,31.82,31.82,0,0,1-3.69-15.56,32.59,32.59,0,0,1,3.59-15.57,25.27,25.27,0,0,1,10.1-10.36,30,30,0,0,1,14.94-3.64,29.24,29.24,0,0,1,14.47,3.54,25,25,0,0,1,9.89,9.94,30.06,30.06,0,0,1,3.54,14.73A36.67,36.67,0,0,1,960.78,121.63Zm-12-9.58a13.49,13.49,0,0,0-4.69-10.51,16.71,16.71,0,0,0-11.34-4,15.23,15.23,0,0,0-10.52,3.91,16.29,16.29,0,0,0-5.2,10.56Z"></path><path class="cls-1" d="M1010.13,143.13a26.47,26.47,0,0,1-10.31-10.41,31.41,31.41,0,0,1-3.75-15.56,30.83,30.83,0,0,1,3.85-15.52,26.59,26.59,0,0,1,10.52-10.41,32.25,32.25,0,0,1,29.77,0,26.66,26.66,0,0,1,10.52,10.41,30.94,30.94,0,0,1,3.85,15.52,30.25,30.25,0,0,1-3.95,15.51,27.5,27.5,0,0,1-10.78,10.46,31.11,31.11,0,0,1-15,3.69A29.38,29.38,0,0,1,1010.13,143.13Zm23.26-8.8a16.56,16.56,0,0,0,6.51-6.56,21,21,0,0,0,2.5-10.61,21.59,21.59,0,0,0-2.39-10.57,16.22,16.22,0,0,0-6.36-6.51,17.33,17.33,0,0,0-8.53-2.18,17.07,17.07,0,0,0-8.49,2.18,15.6,15.6,0,0,0-6.19,6.51,22.29,22.29,0,0,0-2.29,10.57q0,9.25,4.74,14.31a15.6,15.6,0,0,0,11.91,5.05A17.62,17.62,0,0,0,1033.39,134.33Z"></path><path class="cls-1" d="M1086.43,90.3a25.06,25.06,0,0,1,11.77-2.71,26,26,0,0,1,23.42,14,32.14,32.14,0,0,1,3.54,15.31,33.07,33.07,0,0,1-3.54,15.46,26.46,26.46,0,0,1-9.73,10.62,25.69,25.69,0,0,1-13.69,3.79,24.86,24.86,0,0,1-11.66-2.65,26.09,26.09,0,0,1-8.33-6.61v35.61h-11.87V88.53h11.87V97A24.08,24.08,0,0,1,1086.43,90.3Zm24.21,16.39a16.78,16.78,0,0,0-6.46-6.56,17.32,17.32,0,0,0-8.58-2.23,16.94,16.94,0,0,0-14.94,8.95,20.77,20.77,0,0,0-2.45,10.31,21.06,21.06,0,0,0,2.45,10.35,16.89,16.89,0,0,0,23.52,6.67,17.23,17.23,0,0,0,6.46-6.82,21.38,21.38,0,0,0,2.44-10.41A20.5,20.5,0,0,0,1110.64,106.69Z"></path><path class="cls-1" d="M1150.77,98.21V130c0,2.15.51,3.7,1.51,4.63s2.73,1.41,5.16,1.41h7.28v9.89h-9.37q-8,0-12.28-3.75T1138.8,130V98.21H1132V88.53h6.76V74.26h12V88.53h14v9.68Z"></path><path class="cls-1" d="M1176.28,78.74a7.55,7.55,0,1,1,10.72,0,7.22,7.22,0,0,1-5.31,2.18A7.32,7.32,0,0,1,1176.28,78.74Zm11.24,9.79v57.36h-11.86V88.53Z"></path><path class="cls-1" d="M1202.78,101.59a25.5,25.5,0,0,1,9.93-10.36,28.79,28.79,0,0,1,14.58-3.64q10.41,0,17.23,4.94a24.46,24.46,0,0,1,9.22,14.11h-12.81a13.53,13.53,0,0,0-5-6.66,14.73,14.73,0,0,0-8.64-2.4,14.36,14.36,0,0,0-11.61,5.16q-4.32,5.15-4.32,14.42t4.32,14.46a14.28,14.28,0,0,0,11.61,5.21q10.31,0,13.64-9.06h12.81a25.66,25.66,0,0,1-9.38,13.9q-6.87,5.16-17.07,5.15a28.52,28.52,0,0,1-14.58-3.69,25.82,25.82,0,0,1-9.93-10.41,32.46,32.46,0,0,1-3.6-15.56A32.47,32.47,0,0,1,1202.78,101.59Z"></path><path class="cls-1" d="M1265.24,101.64a26.16,26.16,0,0,1,23.47-14,25.07,25.07,0,0,1,11.82,2.65,24.33,24.33,0,0,1,8.07,6.61V88.53h12v57.36h-12v-8.54a23.74,23.74,0,0,1-8.22,6.77A26.69,26.69,0,0,1,1275,143a27,27,0,0,1-9.73-10.62,32.73,32.73,0,0,1-3.59-15.46A31.82,31.82,0,0,1,1265.24,101.64Zm40.91,5.21a17.29,17.29,0,0,0-6.4-6.67,16.81,16.81,0,0,0-8.54-2.28,16.82,16.82,0,0,0-14.94,8.79,20.5,20.5,0,0,0-2.44,10.26,21.38,21.38,0,0,0,2.44,10.41,17.23,17.23,0,0,0,6.46,6.82,16.8,16.8,0,0,0,17,0,17.09,17.09,0,0,0,6.4-6.72,21.06,21.06,0,0,0,2.45-10.35A20.77,20.77,0,0,0,1306.15,106.85Z"></path><path class="cls-1" d="M1348.05,68.85v77h-11.87v-77Z"></path><path class="cls-2" d="M199.46,210.17a100.78,100.78,0,0,1-39.07-36.88Q145.92,149.61,145.92,120T160.39,67a101.09,101.09,0,0,1,39.07-36.74Q224.06,17,253.59,17t54.13,13.2A99.05,99.05,0,0,1,346.49,67Q360.65,90.49,360.65,120t-14.31,53.25a100.12,100.12,0,0,1-38.77,36.88q-24.46,13.2-54,13.2T199.46,210.17Zm91.22-54.23q13.94-13.58,13.93-35.9,0-22.54-13.93-36t-37.1-13.46q-23.46,0-37.39,13.34T202.26,120q0,22.56,13.93,36t37.39,13.46Q276.75,169.53,290.68,155.94Z"></path><path class="cls-3" d="M196.5,208a100.75,100.75,0,0,1-39.06-36.88Q143,147.43,143,117.86t14.47-53.1A101.21,101.21,0,0,1,196.5,28q24.62-13.2,54.13-13.2T304.77,28a99.12,99.12,0,0,1,38.77,36.74q14.16,23.53,14.16,53.1T343.39,171.1A100,100,0,0,1,304.62,208q-24.47,13.22-54,13.21T196.5,208Zm91.23-54.22q13.93-13.57,13.93-35.9,0-22.56-13.93-36T250.62,68.38q-23.44,0-37.38,13.34t-13.93,36.14q0,22.56,13.93,36t37.38,13.46Q273.79,167.34,287.73,153.76Z"></path><path class="cls-4" d="M208.65,2.88c113.65,0,205.78,51.82,205.78,115.73S322.3,234.35,208.65,234.35,2.88,182.53,2.88,118.61,95,2.88,208.65,2.88m0-2.88C153.2,0,101,12.17,61.74,34.27,21.93,56.66,0,86.61,0,118.61s21.93,62,61.74,84.35c39.29,22.1,91.46,34.27,146.91,34.27S316.28,225.06,355.57,203c39.81-22.39,61.74-52.35,61.74-84.35s-21.93-61.95-61.74-84.34C316.28,12.17,264.1,0,208.65,0Z"></path><polygon class="cls-2" points="92.33 73.91 92.33 103.2 157.02 104.46 166.39 99.01 166.39 104.66 166.41 104.66 166.41 136.99 166.39 136.99 166.39 141.08 159.12 136.86 92.33 135.55 92.33 166.12 185.77 166.12 199.28 158.27 199.28 214.71 185.79 206.86 34.28 206.86 45.51 187.58 45.51 54.11 34.28 34.84 184.98 34.84 196.32 28.12 199.28 26.59 199.28 81.76 185.77 73.91 92.33 73.91"></polygon><polygon class="cls-5" points="89.4 70.53 89.4 99.82 155.41 101.1 163.47 96.42 163.47 138.49 154.78 133.44 89.4 132.15 89.4 162.74 182.83 162.74 196.34 154.9 196.34 211.3 182.87 203.47 31.34 203.47 42.59 184.14 42.59 50.77 31.34 31.44 182.83 31.44 196.34 23.59 196.34 78.36 182.87 70.53 89.4 70.53"></polygon><path class="cls-2" d="M199.46,210.17a100.78,100.78,0,0,1-39.07-36.88Q145.92,149.61,145.92,120T160.39,67a101.09,101.09,0,0,1,39.07-36.74Q224.06,17,253.59,17t54.13,13.2A99.05,99.05,0,0,1,346.49,67Q360.65,90.49,360.65,120t-14.31,53.25a100.12,100.12,0,0,1-38.77,36.88q-24.46,13.2-54,13.2T199.46,210.17Zm91.22-54.23q13.94-13.58,13.93-35.9,0-22.54-13.93-36t-37.1-13.46q-23.46,0-37.39,13.34T202.26,120q0,22.56,13.93,36t37.39,13.46Q276.75,169.53,290.68,155.94Z"></path><path class="cls-3" d="M196.5,208a100.75,100.75,0,0,1-39.06-36.88Q143,147.43,143,117.86t14.47-53.1A101.21,101.21,0,0,1,196.5,28q24.62-13.2,54.13-13.2T304.77,28a99.12,99.12,0,0,1,38.77,36.74q14.16,23.53,14.16,53.1T343.39,171.1A100,100,0,0,1,304.62,208q-24.47,13.22-54,13.21T196.5,208Zm91.23-54.22q13.93-13.57,13.93-35.9,0-22.56-13.93-36T250.62,68.38q-23.44,0-37.38,13.34t-13.93,36.14q0,22.56,13.93,36t37.38,13.46Q273.79,167.34,287.73,153.76Z"></path><path class="cls-4" d="M208.65,2.88c113.65,0,205.78,51.82,205.78,115.73S322.3,234.35,208.65,234.35,2.88,182.53,2.88,118.61,95,2.88,208.65,2.88m0-2.88C153.2,0,101,12.17,61.74,34.27,21.93,56.66,0,86.61,0,118.61s21.93,62,61.74,84.35c39.29,22.1,91.46,34.27,146.91,34.27S316.28,225.06,355.57,203c39.81-22.39,61.74-52.35,61.74-84.35s-21.93-61.95-61.74-84.34C316.28,12.17,264.1,0,208.65,0Z"></path><polygon class="cls-2" points="92.33 73.91 92.33 103.2 157.02 104.46 166.39 99.01 166.39 104.66 166.41 104.66 166.41 136.99 166.39 136.99 166.39 141.08 159.12 136.86 92.33 135.55 92.33 166.12 185.77 166.12 199.28 158.27 199.28 214.71 185.79 206.86 34.28 206.86 45.51 187.58 45.51 54.11 34.28 34.84 184.98 34.84 196.32 28.12 199.28 26.59 199.28 81.76 185.77 73.91 92.33 73.91"></polygon><polygon class="cls-5" points="89.4 70.53 89.4 99.82 155.41 101.1 163.47 96.42 163.47 138.49 154.78 133.44 89.4 132.15 89.4 162.74 182.83 162.74 196.34 154.9 196.34 211.3 182.87 203.47 31.34 203.47 42.59 184.14 42.59 50.77 31.34 31.44 182.83 31.44 196.34 23.59 196.34 78.36 182.87 70.53 89.4 70.53"></polygon></g></g></g></svg>